P3
5 5
255
102
102
102
204
204
204
204
204
204
204
204
204
204
204
204
204
204
204
255
255
255
204
204
204
255
255
255
204
204
204
204
204
204
0
0
0
204
204
204
0
0
0
204
204
204
102
102
102
204
204
204
204
204
204
204
204
204
204
204
204
127
127
127
127
127
127
204
204
204
127
127
127
127
127
127
