P3
5 5
255
112
255
112
255
163
214
255
163
214
255
163
214
255
255
214
255
163
214
61
61
255
255
163
214
61
61
255
255
163
214
255
163
214
10
10
10
255
163
214
10
10
10
255
163
214
112
255
112
255
163
214
255
163
214
255
163
214
255
255
214
255
10
137
255
10
137
255
255
214
255
10
137
255
10
137
