P3
5 5
255
92
245
92
245
143
194
245
143
194
245
143
194
245
245
194
245
143
194
41
41
245
245
143
194
41
41
245
245
143
194
245
143
194
0
0
0
245
143
194
0
0
0
245
143
194
92
245
92
245
143
194
245
143
194
245
143
194
245
245
194
245
0
117
245
0
117
245
245
194
245
0
117
245
0
117
