P3
5 5
255
255
255
255
153
153
153
153
153
153
153
153
153
255
255
255
153
153
153
51
51
51
153
153
153
51
51
51
153
153
153
153
153
153
0
0
0
153
153
153
0
0
0
153
153
153
255
255
255
153
153
153
153
153
153
153
153
153
255
255
255
0
0
0
0
0
0
255
255
255
0
0
0
0
0
0
