P3
5 5
255
211
211
211
178
178
178
178
178
178
178
178
178
251
251
251
178
178
178
66
66
66
178
178
178
66
66
66
178
178
178
178
178
178
0
0
0
178
178
178
0
0
0
178
178
178
211
211
211
178
178
178
178
178
178
178
178
178
251
251
251
63
63
63
63
63
63
251
251
251
63
63
63
63
63
63
