P3
5 5
255
153
153
153
204
204
204
204
204
204
204
204
204
238
238
238
204
204
204
119
119
119
204
204
204
119
119
119
204
204
204
204
204
204
0
0
0
204
204
204
0
0
0
204
204
204
153
153
153
204
204
204
204
204
204
204
204
204
238
238
238
127
127
127
127
127
127
238
238
238
127
127
127
127
127
127
