P3
5 5
255
102
102
102
255
255
255
255
255
255
255
255
255
255
255
255
255
255
255
51
51
51
255
255
255
51
51
51
255
255
255
255
255
255
0
0
0
255
255
255
0
0
0
255
255
255
102
102
102
255
255
255
255
255
255
255
255
255
255
255
255
255
255
255
255
255
255
255
255
255
255
255
255
255
255
255
