P3
5 5
255
204
127
160
204
127
160
214
132
214
204
127
160
204
127
160
204
127
160
204
127
160
204
127
160
214
132
214
204
127
160
214
132
214
204
127
160
204
127
160
204
127
160
204
127
160
204
127
160
214
132
214
204
127
160
214
132
214
204
127
160
204
127
160
204
127
160
204
127
160
204
127
160
204
127
160
