P3
 5 5 255 102 255 102 255 153 204 255 153 204 255 153 204 255 255 204 255 153 204 51 51 255 255 153 204 51 51 255 255 153 204 255 153 204 0 0 0 255 153 204 0 0 0 255 153 204 102 255 102 255 153 204 255 153 204 255 153 204 255 255 204 255 0 127 255 0 127 255 255 204 255 0 127 255 0 127 